# xmcd
#
# Track frame offsets:
#	150
#	12401
#	26101
#	36757
#	53049
#	69634
#	91727
#	112462
#	131403
#	144565
#	152898
#	160132
#	170715
#	185198
#	194894
#	210845
#
# Disc length: 3072 seconds
#
# Revision: 0
# Processed by: cddbd v1.5.2PL0 Copyright (c) Steve Scherf et al.
# Submitted via: EasyCDDAExtractor 8.2.1.1
#
DISCID=ee0bfe10
DTITLE=Santiago Chalar - Lo Mejor de Santiago Chalar II
DYEAR=2005
DGENRE=
TTITLE0=Punta Ballena
TTITLE1=Isla Patrulla
TTITLE2=Mis Caminos
TTITLE3=Palomita Blanca
TTITLE4=Costumbres
TTITLE5=Va Lata Pa' Don Miguel
TTITLE6=En El Partidero
TTITLE7=Somos Hermanos
TTITLE8=Menina
TTITLE9=Nuestro Camino
TTITLE10=Polca
TTITLE11=Atadito
TTITLE12=Entrevero
TTITLE13=Tangos De Negros
TTITLE14=Lala
TTITLE15=A Veces Voy Conversando
EXTD=
EXTT0=
EXTT1=
EXTT2=
EXTT3=
EXTT4=
EXTT5=
EXTT6=
EXTT7=
EXTT8=
EXTT9=
EXTT10=
EXTT11=
EXTT12=
EXTT13=
EXTT14=
EXTT15=
PLAYORDER=
